<?xml version="1.0" standalone="no"?>
<!DOCTYPE svg PUBLIC "-//W3C//DTD SVG 20010904//EN"
 "http://www.w3.org/TR/2001/REC-SVG-20010904/DTD/svg10.dtd">
<svg version="1.0" xmlns="http://www.w3.org/2000/svg"
 width="1313.000000pt" height="1313.000000pt" viewBox="0 0 1313.000000 1313.000000"
 preserveAspectRatio="xMidYMid meet">
<metadata>
Created by potrace 1.14, written by Peter Selinger 2001-2017
</metadata>
<g transform="translate(0.000000,1313.000000) scale(0.100000,-0.100000)"
fill="#000000" stroke="none">
<path d="M4877 11674 c-1 -1 -47 -5 -102 -9 -139 -8 -262 -20 -322 -30 -18 -3
-54 -8 -80 -11 -27 -2 -55 -7 -63 -9 -8 -3 -33 -7 -55 -10 -22 -3 -49 -7 -60
-9 -11 -2 -40 -7 -65 -12 -25 -4 -47 -8 -50 -9 -22 -7 -189 -45 -216 -50 -10
-2 -19 -4 -19 -5 0 -1 -7 -3 -15 -5 -8 -1 -42 -10 -75 -19 -33 -9 -67 -18 -76
-21 -28 -6 -353 -115 -374 -125 -11 -5 -45 -19 -75 -30 -30 -12 -68 -27 -85
-35 -16 -7 -37 -15 -45 -17 -8 -2 -17 -5 -20 -9 -3 -3 -30 -15 -60 -28 -89
-38 -375 -182 -378 -192 -2 -5 -12 -9 -23 -9 -10 0 -19 -4 -19 -10 0 -5 -4
-10 -10 -10 -5 0 -43 -20 -83 -45 -41 -25 -80 -45 -86 -45 -6 0 -11 -4 -11 -8
0 -5 -12 -15 -27 -23 -16 -8 -30 -16 -33 -19 -18 -18 -100 -70 -100 -63 0 4
-4 3 -8 -2 -4 -6 -32 -28 -62 -50 -30 -22 -56 -43 -58 -47 -2 -5 -8 -8 -13 -8
-5 0 -29 -15 -54 -34 -74 -57 -239 -189 -256 -205 -9 -9 -40 -36 -70 -61 -29
-25 -132 -124 -228 -221 -157 -156 -210 -213 -282 -299 -11 -14 -30 -36 -42
-50 -12 -14 -44 -54 -72 -89 -27 -35 -58 -72 -67 -82 -9 -9 -14 -20 -11 -23 3
-3 -2 -8 -11 -12 -9 -3 -16 -12 -16 -19 0 -7 -3 -15 -7 -17 -13 -5 -93 -116
-93 -128 0 -5 -4 -10 -10 -10 -5 0 -10 -6 -10 -14 0 -8 -4 -16 -8 -18 -11 -4
-192 -294 -192 -307 0 -6 -4 -11 -8 -11 -4 0 -15 -15 -23 -32 -9 -18 -49 -98
-90 -178 -68 -132 -98 -195 -157 -330 -24 -55 -123 -314 -126 -332 -2 -7 -6
-20 -9 -28 -37 -91 -136 -454 -161 -590 -2 -14 -7 -36 -10 -50 -15 -65 -49
-287 -62 -405 -3 -27 -7 -61 -9 -75 -12 -67 -19 -271 -19 -510 -1 -273 6 -408
28 -590 3 -25 8 -65 11 -90 3 -25 10 -70 15 -100 9 -58 20 -122 25 -155 7 -46
16 -89 19 -94 2 -3 7 -23 10 -44 9 -54 73 -310 98 -385 11 -34 21 -68 22 -75
8 -36 20 -73 27 -83 5 -6 10 -19 12 -30 2 -10 7 -27 11 -36 4 -9 9 -22 10 -30
2 -7 7 -22 11 -33 4 -11 24 -60 43 -110 31 -80 54 -137 82 -200 5 -11 41 -86
79 -168 39 -81 71 -151 71 -156 0 -5 4 -11 8 -13 8 -3 65 -102 96 -165 6 -13
14 -23 19 -23 4 0 7 -7 7 -15 0 -9 5 -21 10 -28 6 -7 23 -32 39 -57 15 -25 59
-92 97 -149 38 -57 74 -111 79 -120 6 -9 12 -18 15 -21 3 -3 44 -57 92 -120
47 -63 96 -126 107 -139 12 -13 21 -28 21 -33 0 -4 8 -8 17 -8 9 0 14 -3 11
-6 -4 -3 1 -14 10 -24 9 -10 35 -40 57 -66 54 -65 406 -417 479 -479 33 -27
70 -59 82 -70 13 -11 37 -31 55 -45 18 -14 37 -30 43 -35 19 -17 239 -181 271
-201 17 -10 32 -21 35 -24 9 -10 143 -96 270 -172 129 -78 379 -208 510 -266
41 -19 89 -40 107 -48 52 -23 254 -99 328 -124 39 -12 79 -26 90 -30 57 -22
184 -61 215 -65 8 -1 22 -5 30 -8 25 -11 238 -61 325 -77 28 -5 61 -12 75 -15
14 -3 39 -7 55 -9 17 -3 44 -7 60 -10 64 -10 182 -26 213 -28 17 -1 32 -5 32
-8 0 -3 31 -6 68 -7 37 -1 87 -5 112 -9 25 -3 576 -8 1225 -11 l1180 -4 929
929 930 930 0 1158 1 1159 35 2 c19 2 323 4 675 7 352 2 663 7 690 10 28 4 64
8 80 11 17 2 50 7 75 10 25 3 56 8 70 11 14 3 41 7 60 9 19 3 46 8 60 12 14 4
32 8 40 9 8 2 35 8 60 14 25 7 50 13 55 14 45 12 72 20 80 25 6 3 15 6 20 7
33 3 75 18 75 26 0 5 4 7 8 4 27 -17 523 209 593 270 8 8 19 14 23 14 16 0
233 155 336 239 86 70 324 300 365 353 6 7 40 49 75 93 71 87 71 87 164 225
53 80 179 293 182 310 0 3 15 37 33 75 66 141 79 173 129 320 69 207 124 456
138 635 4 41 11 81 17 88 5 7 6 12 0 12 -5 0 -8 17 -5 38 6 59 5 308 -2 407
-7 95 -10 119 -26 230 -16 108 -18 117 -30 170 -6 28 -13 57 -15 65 -23 107
-89 324 -120 395 -8 17 -26 59 -40 95 -41 100 -160 334 -205 400 -9 14 -30 45
-46 70 -46 72 -128 185 -136 188 -5 2 -8 8 -8 12 0 5 -10 20 -22 33 -13 12
-32 35 -43 49 -11 14 -37 44 -57 67 -21 22 -38 45 -38 51 0 6 -3 9 -7 7 -5 -2
-24 14 -43 37 -19 22 -73 76 -120 118 -116 105 -136 122 -205 174 -33 25 -67
51 -77 59 -28 23 -197 135 -203 135 -4 0 -25 13 -48 28 -46 32 -257 138 -327
166 -25 10 -58 23 -75 31 -34 15 -98 39 -105 41 -3 0 -12 3 -20 7 -65 26 -350
103 -411 111 -19 2 -45 7 -59 10 -31 7 -96 17 -135 21 -16 2 -52 7 -80 11 -27
4 -360 9 -739 11 l-688 3 -929 -929 -929 -929 0 -3247 c0 -1787 -2 -3250 -4
-3252 -6 -6 -2122 -4 -2211 2 -91 6 -159 12 -215 21 -25 3 -56 7 -70 9 -14 2
-25 4 -25 5 0 1 -16 3 -35 5 -39 4 -70 10 -115 20 -16 4 -48 11 -70 15 -22 5
-60 14 -85 20 -25 7 -49 13 -55 14 -5 1 -16 5 -22 9 -7 5 -13 5 -13 1 0 -3 -7
-1 -15 6 -9 7 -18 10 -21 7 -3 -3 -33 6 -66 19 -33 13 -65 21 -69 18 -5 -3 -9
0 -9 5 0 6 -3 10 -7 9 -5 0 -15 1 -23 4 -8 4 -22 8 -30 11 -8 2 -19 6 -25 8
-5 1 -21 8 -34 15 -14 7 -28 11 -33 8 -4 -3 -8 -1 -8 5 0 5 -17 15 -37 22 -21
6 -42 15 -48 19 -5 5 -14 9 -20 11 -29 6 -277 136 -327 171 -14 10 -31 18 -37
18 -6 0 -11 5 -11 10 0 6 -7 10 -15 10 -8 0 -15 5 -15 10 0 6 -4 10 -10 10 -8
0 -128 77 -140 90 -3 3 -21 17 -40 30 -19 14 -46 35 -60 47 -14 13 -28 23 -31
23 -4 0 -20 12 -37 28 -16 15 -60 53 -96 86 -72 63 -219 206 -212 206 2 0 -20
25 -50 55 -30 30 -54 58 -54 61 0 4 -8 14 -18 23 -9 9 -30 34 -46 56 -16 22
-34 45 -41 50 -6 6 -31 39 -55 75 -24 36 -48 68 -54 72 -7 5 -7 8 -1 8 6 0 2
5 -8 11 -9 5 -17 14 -17 18 0 5 -27 52 -60 104 -33 53 -60 101 -60 106 0 6 -5
11 -10 11 -6 0 -9 3 -8 8 2 4 -7 23 -19 42 -12 19 -23 42 -25 50 -2 8 -5 17
-8 20 -20 17 -170 381 -170 410 0 9 -4 20 -10 26 -5 5 -11 21 -14 34 -2 14 -5
26 -7 28 -1 1 -2 5 -3 10 -1 4 -5 13 -9 20 -5 6 -6 12 -3 12 3 0 -1 18 -9 40
-8 22 -12 40 -8 40 3 0 0 7 -7 15 -7 8 -10 15 -7 15 3 0 0 20 -7 44 -8 25 -12
47 -9 50 3 2 1 11 -3 18 -4 7 -9 19 -10 28 -1 8 -5 26 -8 40 -3 14 -7 41 -10
60 -2 19 -7 46 -10 60 -6 26 -15 101 -20 160 -1 20 -4 40 -7 45 -3 6 -4 40 -4
78 0 37 -2 67 -5 67 -14 0 6 462 25 571 3 20 8 51 10 70 4 34 9 64 22 129 4
19 7 40 8 45 1 6 4 19 8 30 3 11 9 34 12 50 3 17 12 55 21 85 9 30 17 62 18
70 1 9 5 21 10 28 4 6 4 12 0 12 -3 0 -1 7 6 15 7 8 10 15 6 15 -4 0 0 13 9
30 8 16 15 32 15 35 0 3 0 6 1 8 0 1 2 9 4 17 2 8 9 29 16 45 7 17 13 33 14
38 2 4 4 9 5 12 1 3 3 8 5 13 12 43 129 303 142 316 5 4 8 11 8 14 1 14 45 91
55 97 6 4 8 11 5 16 -4 5 -1 9 4 9 6 0 11 4 11 10 0 9 53 101 72 125 22 27 58
87 58 95 0 6 3 10 8 10 4 0 18 17 32 37 14 21 30 45 37 53 153 195 245 296
395 435 103 96 149 135 158 135 4 0 11 7 14 16 4 9 9 14 12 11 3 -2 16 5 29
17 30 27 36 32 120 91 39 27 73 54 77 60 4 5 8 7 8 4 0 -4 37 17 82 47 46 30
88 54 95 54 6 0 13 4 15 8 2 4 53 32 113 62 61 30 112 57 115 60 3 3 14 7 25
8 11 2 22 8 23 13 2 5 12 9 23 9 10 0 19 5 19 12 0 6 3 8 6 5 4 -3 16 -1 28 5
11 7 26 13 31 15 32 7 152 56 164 66 12 10 13 9 6 -2 -5 -9 -4 -12 2 -8 19 12
68 30 76 28 4 0 17 4 28 10 11 6 28 12 37 14 9 1 37 8 62 15 25 7 52 14 60 15
8 2 15 4 15 5 0 2 14 5 60 13 64 12 91 18 110 24 11 3 31 7 45 9 14 1 41 4 60
7 39 6 133 17 195 23 22 2 96 6 165 9 69 3 130 7 137 9 7 3 14 2 17 -2 2 -4
50 -7 105 -7 56 0 101 -4 101 -9 0 -5 7 -3 15 4 8 7 15 9 15 4 0 -5 12 -9 28
-10 50 -1 191 -18 250 -30 12 -2 34 -6 50 -9 15 -3 41 -8 57 -12 17 -3 39 -8
50 -10 38 -6 60 -11 60 -13 0 -1 12 -4 27 -6 15 -3 45 -11 66 -18 43 -16 66
-8 56 17 -3 9 -2 17 4 17 5 0 13 16 16 35 4 19 18 70 32 113 13 42 26 86 28
97 2 11 9 33 15 48 6 16 9 32 6 37 -3 5 -1 10 5 12 6 2 11 18 13 36 1 17 5 32
8 32 6 0 10 15 21 75 1 6 12 38 24 73 13 34 20 62 17 62 -3 0 0 7 7 15 7 9 10
18 7 22 -4 3 -2 12 3 18 6 7 11 24 12 39 1 14 5 26 9 26 3 0 6 6 7 13 0 11 8
43 16 72 2 6 8 23 14 38 7 15 11 31 10 35 -1 4 1 14 5 22 6 17 30 90 33 105 2
6 6 21 9 35 4 14 7 31 7 38 1 6 5 12 10 12 5 0 6 5 3 10 -3 6 -3 16 2 23 4 6
8 15 9 20 1 4 2 8 4 10 1 1 3 9 5 17 11 45 36 137 42 150 8 19 11 31 15 50 2
8 7 21 11 28 5 6 6 12 2 12 -3 0 0 10 6 22 7 12 13 29 14 38 1 13 19 84 29
115 2 6 4 12 4 15 0 3 6 19 12 35 28 70 23 89 -25 100 -5 2 -55 14 -110 28
-112 29 -229 54 -365 77 -30 6 -64 12 -76 14 -19 4 -71 11 -164 22 -19 2 -51
6 -70 9 -34 4 -67 7 -230 21 -72 6 -588 13 -593 8z m5343 -1858 c30 -4 69 -8
85 -10 17 -2 31 -5 33 -6 3 -3 11 -5 57 -14 48 -10 249 -87 253 -98 2 -4 10
-8 18 -8 8 0 14 -3 14 -8 0 -4 12 -13 28 -20 70 -31 236 -176 298 -258 16 -22
36 -47 45 -57 9 -9 22 -30 30 -45 8 -15 17 -29 20 -32 10 -9 88 -170 82 -170
-3 0 0 -7 7 -15 7 -8 9 -15 5 -15 -4 0 -2 -6 4 -13 6 -8 12 -22 14 -33 2 -10
7 -26 10 -34 7 -20 17 -67 23 -110 6 -51 9 -64 15 -75 6 -12 2 -248 -4 -285
-3 -14 -8 -45 -12 -69 -3 -23 -11 -55 -16 -70 -6 -14 -10 -28 -10 -31 1 -14
-13 -57 -22 -67 -5 -7 -6 -13 -3 -13 4 0 4 -6 -1 -12 -4 -7 -8 -20 -10 -28 -1
-8 -7 -16 -12 -18 -6 -2 -11 -9 -11 -15 0 -11 -50 -117 -60 -127 -12 -12 -50
-70 -50 -76 0 -9 -8 -18 -112 -124 -80 -83 -144 -141 -164 -149 -5 -2 -25 -14
-44 -26 -19 -12 -48 -30 -65 -41 -16 -10 -32 -19 -35 -19 -3 -1 -25 -11 -49
-23 -25 -12 -48 -22 -52 -22 -4 0 -20 -5 -36 -11 -15 -6 -29 -10 -30 -10 -2 0
-21 -6 -43 -14 -22 -8 -43 -14 -45 -14 -6 1 -46 -7 -90 -18 -16 -3 -316 -8
-666 -10 l-635 -4 0 1160 0 1160 105 3 c195 5 1075 0 1131 -6z"/>
</g>
</svg>
